<svg width="25" height="24" viewBox="0 0 25 24" fill="none" xmlns="http://www.w3.org/2000/svg">
<path fill-rule="evenodd" clip-rule="evenodd" d="M17.2437 0.769367C17.2421 0.681218 17.2404 0.592928 17.2404 0.504639C14.4142 0.742836 12.2181 3.33952 12.4707 5.97876C12.7755 6.05018 13.2805 5.99156 13.6865 5.85199C15.4382 5.24882 17.0913 3.42721 17.2377 1.33763C17.2509 1.14981 17.2473 0.959913 17.2437 0.769367ZM8.99665 24.0001H9.5931C10.011 23.9355 10.4209 23.8257 10.8158 23.6726C10.9133 23.6353 11.0103 23.597 11.1073 23.5587C11.3377 23.4677 11.5677 23.3769 11.8023 23.3004C12.83 22.965 13.8547 23.0052 14.8701 23.3618C15.0329 23.4191 15.1944 23.4808 15.3559 23.5426C15.6332 23.6486 15.9105 23.7546 16.1942 23.8378C16.9432 24.0576 17.6918 24.0471 18.3965 23.6668C18.6503 23.5254 18.8886 23.3573 19.1076 23.1653C20.0753 22.3369 20.797 21.3113 21.3934 20.1878C21.7699 19.4783 22.0874 18.7419 22.376 17.9922C22.3854 17.968 22.3967 17.9446 22.408 17.9212C22.4133 17.9103 22.4186 17.8994 22.4237 17.8884V17.7954C21.8755 17.5863 21.3737 17.2693 20.947 16.8626C19.7289 15.7128 19.1565 14.2847 19.2723 12.6057C19.3721 11.1531 20.0489 9.98928 21.1615 9.08069C21.2663 8.99578 21.373 8.91506 21.4827 8.83644C21.5548 8.7847 21.6283 8.73678 21.7099 8.68355C21.7523 8.65589 21.7969 8.6268 21.8447 8.59499C21.7745 8.5152 21.7061 8.4348 21.6381 8.35486C21.4933 8.18448 21.3502 8.01618 21.195 7.86039C20.3265 6.98901 19.2551 6.55379 18.0655 6.35374C17.0425 6.18161 16.0715 6.3677 15.108 6.69336C14.4315 6.92155 13.7517 7.13975 13.0663 7.33491C12.9066 7.38027 12.7073 7.34352 12.5414 7.29304C12.0999 7.15881 11.6648 7.00263 11.23 6.84658L11.1985 6.83526C10.6188 6.62707 10.0315 6.45214 9.4199 6.3677C9.01271 6.31141 8.6124 6.36328 8.21324 6.43074C7.38302 6.5717 6.60879 6.86224 5.90612 7.33794C4.9752 7.96809 4.30763 8.82202 3.84492 9.84692C3.42672 10.7723 3.21246 11.7504 3.1535 12.763C3.04247 14.6725 3.41158 16.4967 4.12824 18.2548C4.77401 19.8394 5.67236 21.2641 6.79391 22.5458C7.12288 22.9206 7.4624 23.279 7.87991 23.5542C8.21025 23.7722 8.56285 23.929 8.95651 23.9815C8.97074 23.9856 8.98427 23.9919 8.99665 24.0001Z" fill="black"/>
</svg>
